<svg width="33" height="32" viewBox="0 0 33 32" fill="none" xmlns="http://www.w3.org/2000/svg">
<path d="M21.7488 2C20.2561 2.10325 18.5114 3.05873 17.4947 4.30296C16.5672 5.43169 15.8042 7.10817 16.1017 8.73739C17.7327 8.78814 19.4179 7.8099 20.3944 6.54467C21.3078 5.36694 21.9991 3.70097 21.7488 2Z" fill="white"/>
<path d="M27.6478 11.3939C26.2146 9.5967 24.2004 8.55371 22.2982 8.55371C19.787 8.55371 18.7247 9.75594 16.98 9.75594C15.181 9.75594 13.8143 8.55721 11.6426 8.55721C9.50938 8.55721 7.23792 9.86094 5.79769 12.0904C3.77298 15.2299 4.11947 21.1325 7.40067 26.1602C8.5749 27.9592 10.1429 29.9821 12.1938 29.9996C14.0191 30.0171 14.5336 28.8289 17.0063 28.8167C19.479 28.8027 19.948 30.0154 21.7697 29.9961C23.8224 29.9804 25.4761 27.7387 26.6503 25.9397C27.4921 24.65 27.8053 24.0007 28.4581 22.5447C23.7104 20.737 22.9492 13.9856 27.6478 11.3939Z" fill="white"/>
</svg>
