<svg width="124" height="40" viewBox="0 0 124 40" fill="none" xmlns="http://www.w3.org/2000/svg">
<path d="M64.536 11.7876H67.632V23.7876H64.536V22.3716C63.608 23.5396 62.304 24.1236 60.624 24.1236C59.024 24.1236 57.648 23.5156 56.496 22.2996C55.36 21.0676 54.792 19.5636 54.792 17.7876C54.792 16.0116 55.36 14.5156 56.496 13.2996C57.648 12.0676 59.024 11.4516 60.624 11.4516C62.304 11.4516 63.608 12.0356 64.536 13.2036V11.7876ZM58.824 20.2356C59.448 20.8596 60.24 21.1716 61.2 21.1716C62.16 21.1716 62.952 20.8596 63.576 20.2356C64.216 19.5956 64.536 18.7796 64.536 17.7876C64.536 16.7956 64.216 15.9876 63.576 15.3636C62.952 14.7236 62.16 14.4036 61.2 14.4036C60.24 14.4036 59.448 14.7236 58.824 15.3636C58.2 15.9876 57.888 16.7956 57.888 17.7876C57.888 18.7796 58.2 19.5956 58.824 20.2356ZM70.9194 23.7876V6.2676H74.0154V23.7876H70.9194ZM78.8651 10.3476C78.3531 10.3476 77.9051 10.1636 77.5211 9.7956C77.1531 9.4116 76.9691 8.9636 76.9691 8.4516C76.9691 7.9396 77.1531 7.4916 77.5211 7.1076C77.9051 6.7236 78.3531 6.5316 78.8651 6.5316C79.3931 6.5316 79.8411 6.7236 80.2091 7.1076C80.5931 7.4916 80.7851 7.9396 80.7851 8.4516C80.7851 8.9636 80.5931 9.4116 80.2091 9.7956C79.8411 10.1636 79.3931 10.3476 78.8651 10.3476ZM77.3291 23.7876V11.7876H80.4251V23.7876H77.3291ZM91.6588 11.7876H94.7548V23.7876H91.6588V22.4436C90.9068 23.5636 89.7148 24.1236 88.0828 24.1236C86.7708 24.1236 85.6828 23.6836 84.8188 22.8036C83.9708 21.9236 83.5468 20.7076 83.5468 19.1556V11.7876H86.6428V18.7716C86.6428 19.5716 86.8588 20.1876 87.2908 20.6196C87.7228 21.0356 88.2988 21.2436 89.0188 21.2436C89.8188 21.2436 90.4588 20.9956 90.9388 20.4996C91.4188 20.0036 91.6588 19.2596 91.6588 18.2676V11.7876ZM111.342 11.4516C112.718 11.4516 113.814 11.8996 114.63 12.7956C115.462 13.6916 115.878 14.8916 115.878 16.3956V23.7876H112.782V16.6116C112.782 15.8916 112.606 15.3316 112.254 14.9316C111.902 14.5316 111.406 14.3316 110.766 14.3316C110.062 14.3316 109.51 14.5636 109.11 15.0276C108.726 15.4916 108.534 16.1636 108.534 17.0436V23.7876H105.438V16.6116C105.438 15.8916 105.262 15.3316 104.91 14.9316C104.558 14.5316 104.062 14.3316 103.422 14.3316C102.734 14.3316 102.182 14.5636 101.766 15.0276C101.366 15.4916 101.166 16.1636 101.166 17.0436V23.7876H98.0704V11.7876H101.166V13.0596C101.886 11.9876 102.998 11.4516 104.502 11.4516C105.974 11.4516 107.062 12.0276 107.766 13.1796C108.566 12.0276 109.758 11.4516 111.342 11.4516Z" fill="#0B1359"/>
<path opacity="0.5" d="M55.92 32.4436C55.92 32.6436 56.028 32.8036 56.244 32.9236C56.468 33.0356 56.736 33.1356 57.048 33.2236C57.368 33.3036 57.688 33.3996 58.008 33.5116C58.328 33.6236 58.596 33.8156 58.812 34.0876C59.036 34.3516 59.148 34.6876 59.148 35.0956C59.148 35.6716 58.924 36.1236 58.476 36.4516C58.036 36.7796 57.48 36.9436 56.808 36.9436C56.216 36.9436 55.708 36.8196 55.284 36.5716C54.86 36.3236 54.552 35.9796 54.36 35.5396L55.476 34.8916C55.684 35.4676 56.128 35.7556 56.808 35.7556C57.488 35.7556 57.828 35.5316 57.828 35.0836C57.828 34.8916 57.716 34.7356 57.492 34.6156C57.276 34.4956 57.008 34.3956 56.688 34.3156C56.376 34.2276 56.06 34.1276 55.74 34.0156C55.42 33.9036 55.148 33.7196 54.924 33.4636C54.708 33.1996 54.6 32.8676 54.6 32.4676C54.6 31.9156 54.808 31.4716 55.224 31.1356C55.648 30.7996 56.172 30.6316 56.796 30.6316C57.292 30.6316 57.732 30.7436 58.116 30.9676C58.508 31.1836 58.808 31.4876 59.016 31.8796L57.924 32.4916C57.716 32.0356 57.34 31.8076 56.796 31.8076C56.548 31.8076 56.34 31.8636 56.172 31.9756C56.004 32.0796 55.92 32.2356 55.92 32.4436ZM71.7649 30.7876H73.1329L71.2489 36.7876H69.9769L68.7289 32.7436L67.4689 36.7876H66.1969L64.3129 30.7876H65.6809L66.8449 34.9276L68.1049 30.7876H69.3409L70.5889 34.9276L71.7649 30.7876ZM83.4049 30.7876H84.7009V36.7876H83.4049V35.9236C82.9169 36.6036 82.2169 36.9436 81.3049 36.9436C80.4809 36.9436 79.7769 36.6396 79.1929 36.0316C78.6089 35.4156 78.3169 34.6676 78.3169 33.7876C78.3169 32.8996 78.6089 32.1516 79.1929 31.5436C79.7769 30.9356 80.4809 30.6316 81.3049 30.6316C82.2169 30.6316 82.9169 30.9676 83.4049 31.6396V30.7876ZM80.1529 35.1676C80.5129 35.5276 80.9649 35.7076 81.5089 35.7076C82.0529 35.7076 82.5049 35.5276 82.8649 35.1676C83.2249 34.7996 83.4049 34.3396 83.4049 33.7876C83.4049 33.2356 83.2249 32.7796 82.8649 32.4196C82.5049 32.0516 82.0529 31.8676 81.5089 31.8676C80.9649 31.8676 80.5129 32.0516 80.1529 32.4196C79.7929 32.7796 79.6129 33.2356 79.6129 33.7876C79.6129 34.3396 79.7929 34.7996 80.1529 35.1676ZM94.4075 30.6316C95.2315 30.6316 95.9355 30.9396 96.5195 31.5556C97.1035 32.1636 97.3955 32.9076 97.3955 33.7876C97.3955 34.6756 97.1035 35.4236 96.5195 36.0316C95.9355 36.6396 95.2315 36.9436 94.4075 36.9436C93.4955 36.9436 92.7955 36.6076 92.3075 35.9356V39.1876H91.0115V30.7876H92.3075V31.6516C92.7955 30.9716 93.4955 30.6316 94.4075 30.6316ZM92.8475 35.1676C93.2075 35.5276 93.6595 35.7076 94.2035 35.7076C94.7475 35.7076 95.1995 35.5276 95.5595 35.1676C95.9195 34.7996 96.0995 34.3396 96.0995 33.7876C96.0995 33.2356 95.9195 32.7796 95.5595 32.4196C95.1995 32.0516 94.7475 31.8676 94.2035 31.8676C93.6595 31.8676 93.2075 32.0516 92.8475 32.4196C92.4875 32.7796 92.3075 33.2356 92.3075 33.7876C92.3075 34.3396 92.4875 34.7996 92.8475 35.1676Z" fill="#0B1359"/>
<path d="M19.9956 39.9994C23.9168 39.9994 27.561 38.8794 30.6479 36.9288C31.5659 36.3966 32.627 36.0965 33.7644 36.0965C36.3189 36.0965 38.5145 37.6329 39.4781 39.8322C39.5222 39.9328 39.6205 39.9998 39.7303 39.9998C39.8791 39.9998 39.9996 39.8792 39.9996 39.7304L39.9902 20.2047C39.9909 20.1364 39.9912 20.0681 39.9912 19.9997C39.9912 17.7737 39.6277 15.6327 38.9567 13.6328L28.3814 16.8401C28.7517 17.8227 28.9542 18.8876 28.9542 19.9998C28.9542 24.9486 24.9433 28.9604 19.9954 28.9604C15.0476 28.9604 11.0367 24.9486 11.0367 19.9998L1.59351 27.8369C4.64138 34.9872 11.7333 39.9994 19.9956 39.9994Z" fill="url(#paint0_linear)"/>
<path fill-rule="evenodd" clip-rule="evenodd" d="M0 19.9997C0 8.95417 8.95236 0 19.9957 0C31.039 0 39.9913 8.95417 39.9913 19.9997C39.9913 20.0681 39.991 20.1364 39.9903 20.2047L39.9997 39.7305C39.9997 39.8792 39.8792 39.9998 39.7304 39.9998C39.6206 39.9998 39.5223 39.9328 39.4782 39.8322C38.5146 37.633 36.319 36.0966 33.7645 36.0966C32.6271 36.0966 31.566 36.3966 30.648 36.9288C27.5611 38.8795 23.9169 39.9994 19.9957 39.9994C8.95236 39.9994 0 31.0452 0 19.9997ZM21.5025 30.694C27.2952 30.694 31.9911 25.9972 31.9911 20.2033C31.9911 19.7103 31.957 19.2253 31.8913 18.7503L28.8946 18.9589C28.3789 14.5005 24.5914 11.0392 19.9956 11.0392C15.0478 11.0392 11.0368 15.051 11.0368 19.9998C11.0368 20.0673 11.0376 20.1345 11.0391 20.2016L11.0139 20.2033C11.0139 25.9972 15.7098 30.694 21.5025 30.694Z" fill="url(#paint1_linear)"/>
<path d="M39.9998 39.7304C39.9998 39.8792 39.8793 39.9998 39.7305 39.9998C39.6207 39.9998 39.5224 39.9328 39.4783 39.8322C38.5147 37.6329 36.3191 36.0966 33.7646 36.0966C32.6272 36.0966 31.5661 36.3966 30.6481 36.9288C27.5612 38.8794 23.917 39.9994 19.9958 39.9994C14.0776 39.9994 8.75999 37.4278 5.09888 33.3409L14.3328 27.8605C16.2082 29.6179 18.7296 30.694 21.5023 30.694C25.6997 30.694 29.3211 28.228 30.9975 24.6655H39.9926L39.9998 39.7304Z" fill="url(#paint2_linear)"/>
<path d="M19.9957 0C8.95236 0 0 8.95417 0 19.9997C0 31.0452 8.95236 39.9994 19.9957 39.9994C22.1234 39.9994 24.1695 39.6697 26.0893 39.0564C17.3496 39.0178 10.2767 31.9196 10.2767 23.1691C10.2767 20.7139 10.8335 18.3888 11.8277 16.3132C13.233 13.2032 16.3616 11.0392 19.9955 11.0392C23.6295 11.0392 26.7581 13.2032 28.1634 16.3132H33.4456L37.0195 11.5736C37.7593 12.267 38.4328 13.0305 39.0293 13.8533C36.4366 5.81498 28.8951 0 19.9957 0Z" fill="url(#paint3_linear)"/>
<path d="M20.1462 35.0885C23.1096 35.0885 25.7509 33.7093 27.4636 31.5577L23.5796 38.6492L20.1462 38.9826L13.1376 35.0885C11.7552 33.6211 8.99039 30.6346 8.99039 30.4272C8.99039 30.2198 10.5427 29.2715 11.3189 28.8233C12.5931 32.4714 16.0641 35.0885 20.1462 35.0885Z" fill="url(#paint4_linear)"/>
<path opacity="0.7" d="M19.9957 0C8.95236 0 0 8.95417 0 19.9997C0 31.0452 8.95236 39.9994 19.9957 39.9994C22.1234 39.9994 24.1695 39.6697 26.0893 39.0564C17.3496 39.0178 10.2767 31.9196 10.2767 23.1691C10.2767 20.7139 10.8335 18.3888 11.8277 16.3132C13.233 13.2032 16.3616 11.0392 19.9955 11.0392C23.6295 11.0392 26.7581 13.2032 28.1634 16.3132H33.4456L37.0195 11.5736C37.7593 12.267 38.4328 13.0305 39.0293 13.8533C36.4366 5.81498 28.8951 0 19.9957 0Z" fill="url(#paint5_linear)"/>
<path d="M0.399272 23.9966L0.47506 24.2407C0.262664 23.2562 0.150822 22.2343 0.150822 21.1862C0.150822 13.2262 6.60236 6.77338 14.5607 6.77338C19.7039 6.77338 24.2178 9.46842 26.7676 13.5236L23.3539 5.32656L14.5607 4.19141L5.22809 6.51602C1.98072 10.0719 0 14.8047 0 20.0002C0 21.3688 0.137442 22.7053 0.399272 23.9966Z" fill="url(#paint6_linear)"/>
<path d="M4.59766 7.2397C8.2654 2.81687 13.8016 0 19.9956 0C31.0389 0 39.9912 8.95417 39.9912 19.9997C39.9912 20.0681 39.9909 20.1364 39.9902 20.2047L39.9996 39.7305C39.9996 39.8792 39.8791 39.9998 39.7303 39.9998C39.6205 39.9998 39.5222 39.9328 39.4781 39.8322C38.5145 37.633 36.3189 36.0966 33.7644 36.0966C32.627 36.0966 31.5659 36.3966 30.6479 36.9288C27.561 38.8795 23.9168 39.9994 19.9956 39.9994C18.607 39.9994 17.2514 39.8578 15.9426 39.5883C23.6616 37.8712 29.4328 30.9816 29.4328 22.7439C29.4328 13.2137 21.7086 5.48799 12.1804 5.48799C9.45978 5.48799 6.88627 6.11784 4.59766 7.2397Z" fill="url(#paint7_linear)"/>
<path d="M10.9299 37.8304C13.2072 38.991 15.7363 39.7281 18.4136 39.9377C18.9356 39.9785 19.4631 39.9994 19.9956 39.9994C20.2539 39.9495 20.5299 39.8938 20.8121 39.8341L20.0562 38.0969C18.784 38.7718 17.3329 39.1542 15.7924 39.1542C14.0305 39.1542 12.3853 38.654 10.9912 37.7878L10.9299 37.8304Z" fill="url(#paint8_linear)"/>
<path opacity="0.4" d="M39.9907 20.2047C39.9914 20.1364 39.9917 20.0681 39.9917 19.9997C39.9917 8.95417 31.0394 0 19.9961 0C17.5863 0 15.2761 0.426369 13.1367 1.2078C12.8141 1.32562 12.4954 1.45152 12.1808 1.58525C9.21933 2.84423 6.62378 4.79704 4.59814 7.2397C7.34043 5.39699 15.1116 2.34656 24.2578 4.88661C30.8553 6.74403 35.6916 12.807 35.6916 19.9997C35.6916 20.0537 35.6913 20.1076 35.6908 20.1615L35.6905 20.1841L35.6962 31.9722L35.6984 36.4022C36.1015 36.5336 36.4866 36.705 36.849 36.9116C37.9782 37.5557 38.8867 38.5425 39.4329 39.7305C39.4484 39.7641 39.4637 39.7982 39.4786 39.8322C39.5227 39.9328 39.621 39.9998 39.7308 39.9998C39.8796 39.9998 40.0001 39.8792 40.0001 39.7305L39.9907 20.2047Z" fill="url(#paint9_radial)"/>
<path d="M19.9956 0C31.0389 0 39.9912 8.95417 39.9912 19.9997L39.9902 20.2047L39.9984 37.1457H38.2783L38.2702 20.1965L38.2712 19.9997C38.2712 9.90432 30.0889 1.7204 19.9956 1.7204C18.7218 1.7204 17.4785 1.85064 16.2783 2.09859C15.2832 2.32802 14.2552 2.64374 13.2327 3.01235C9.81115 4.24588 6.45177 6.07185 4.59766 7.2397C5.48338 6.17163 6.47807 5.19722 7.56467 4.33351C10.9776 1.62065 15.2974 0 19.9956 0Z" fill="url(#paint10_radial)"/>
<defs>
<linearGradient id="paint0_linear" x1="28.5249" y1="27.488" x2="9.33564" y2="37.4284" gradientUnits="userSpaceOnUse">
<stop stop-color="#005531"/>
<stop offset="1" stop-color="#069F5F"/>
</linearGradient>
<linearGradient id="paint1_linear" x1="29.7936" y1="39.9998" x2="11.8863" y2="27.8444" gradientUnits="userSpaceOnUse">
<stop stop-color="#0FA968"/>
<stop offset="1" stop-color="#088E56"/>
</linearGradient>
<linearGradient id="paint2_linear" x1="27.4783" y1="35.4679" x2="12.9603" y2="32.3339" gradientUnits="userSpaceOnUse">
<stop stop-color="#005531"/>
<stop offset="1" stop-color="#005531" stop-opacity="0"/>
</linearGradient>
<linearGradient id="paint3_linear" x1="10.9303" y1="33.7645" x2="7.7404" y2="14.5549" gradientUnits="userSpaceOnUse">
<stop stop-color="#0FA968"/>
<stop offset="1" stop-color="#0D995E"/>
</linearGradient>
<linearGradient id="paint4_linear" x1="10.9303" y1="33.7645" x2="7.7404" y2="14.5549" gradientUnits="userSpaceOnUse">
<stop stop-color="#0FA968"/>
<stop offset="1" stop-color="#0D995E"/>
</linearGradient>
<linearGradient id="paint5_linear" x1="11.0192" y1="28.292" x2="14.8776" y2="9.78867" gradientUnits="userSpaceOnUse">
<stop stop-color="#008C51" stop-opacity="0"/>
<stop offset="1" stop-color="#00643A"/>
</linearGradient>
<linearGradient id="paint6_linear" x1="22.8086" y1="22.5404" x2="21.2121" y2="6.74311" gradientUnits="userSpaceOnUse">
<stop stop-color="#13AC6C"/>
<stop offset="1" stop-color="#15BF78"/>
</linearGradient>
<linearGradient id="paint7_linear" x1="34.7635" y1="36.6076" x2="30.02" y2="5.49208" gradientUnits="userSpaceOnUse">
<stop stop-color="#24BA7B"/>
<stop offset="1" stop-color="#33D993"/>
</linearGradient>
<linearGradient id="paint8_linear" x1="34.7635" y1="36.6076" x2="30.02" y2="5.49208" gradientUnits="userSpaceOnUse">
<stop stop-color="#24BA7B"/>
<stop offset="1" stop-color="#33D993"/>
</linearGradient>
<radialGradient id="paint9_radial" cx="0" cy="0" r="1" gradientUnits="userSpaceOnUse" gradientTransform="translate(25.9369 8.9234) rotate(59.3695) scale(24.6582 21.8261)">
<stop stop-color="#91FFD1"/>
<stop offset="1" stop-color="#90FFD1" stop-opacity="0"/>
</radialGradient>
<radialGradient id="paint10_radial" cx="0" cy="0" r="1" gradientUnits="userSpaceOnUse" gradientTransform="translate(28.5817 4.086) rotate(67.4688) scale(25.8798 23.2843)">
<stop stop-color="#A6FFD9"/>
<stop offset="1" stop-color="#A6FFD9" stop-opacity="0"/>
</radialGradient>
</defs>
</svg>
